<svg width="119" height="119" viewBox="0 0 119 119" fill="none" xmlns="http://www.w3.org/2000/svg">
<path d="M94.3809 53.0137C75.3989 41.7286 44.0886 40.6909 25.9679 46.1967C23.0579 47.0802 19.9808 45.4357 19.0991 42.5227C18.2174 39.6082 19.8583 36.5297 22.7703 35.6441C43.5716 29.3224 78.1505 30.5438 100.003 43.5301C102.621 45.0851 103.479 48.4691 101.928 51.0857C100.375 53.7056 96.9918 54.5693 94.3809 53.0137ZM93.7593 69.729C92.4281 71.8926 89.6027 72.5704 87.4446 71.2428C71.6192 61.5043 47.4875 58.6832 28.765 64.3724C26.3371 65.107 23.7726 63.7367 23.0354 61.3104C22.3036 58.8798 23.6732 56.3171 26.0967 55.5779C47.4848 49.0809 74.0726 52.2278 92.2488 63.4102C94.4069 64.7407 95.0862 67.5709 93.7593 69.729ZM86.5536 85.7818C85.496 87.5186 83.236 88.0634 81.5075 87.0047C67.6788 78.5438 50.2734 76.6324 29.7753 81.3201C27.7997 81.7736 25.8313 80.5339 25.3806 78.557C24.9282 76.5796 26.1613 74.6092 28.1412 74.158C50.5728 69.0242 69.8148 71.2337 85.3364 80.7289C87.067 81.7867 87.6119 84.0502 86.5536 85.7818ZM59.5473 0.750909C27.0251 0.750909 0.6595 27.1443 0.6595 59.7028C0.6595 92.2641 27.0251 118.657 59.5473 118.657C92.0709 118.657 118.435 92.2641 118.435 59.7028C118.435 27.1443 92.0709 0.750909 59.5473 0.750909Z" fill="#1ED760"/>
</svg>
