<svg width="171" height="36" viewBox="0 0 171 36" fill="none" xmlns="http://www.w3.org/2000/svg">
<path d="M28.6475 15.9573C22.8453 12.5116 13.2748 12.1948 7.73592 13.8759C6.84643 14.1456 5.90588 13.6435 5.63636 12.7541C5.36685 11.8642 5.86844 10.9243 6.75851 10.6539C13.1168 8.72369 23.6864 9.09661 30.3659 13.0617C31.1662 13.5365 31.4286 14.5697 30.9542 15.3686C30.4796 16.1685 29.4455 16.4323 28.6475 15.9573ZM28.4575 21.0609C28.0506 21.7215 27.1869 21.9285 26.5273 21.5231C21.69 18.5497 14.3137 17.6883 8.5909 19.4254C7.84877 19.6497 7.06489 19.2313 6.83955 18.4905C6.61586 17.7484 7.0345 16.9659 7.7753 16.7402C14.3129 14.7565 22.4399 15.7173 27.9958 19.1316C28.6554 19.5379 28.863 20.402 28.4575 21.0609ZM26.2549 25.9623C25.9317 26.4926 25.2408 26.6589 24.7125 26.3357C20.4855 23.7523 15.1653 23.1687 8.89971 24.6C8.29585 24.7385 7.69418 24.36 7.5564 23.7564C7.41813 23.1526 7.79503 22.551 8.40022 22.4132C15.2568 20.8457 21.1384 21.5204 25.8829 24.4195C26.4118 24.7425 26.5784 25.4336 26.2549 25.9623ZM18 -1.69486e-06C8.05909 -1.69486e-06 0 8.05865 0 17.9997C0 27.9415 8.05909 36 18 36C27.9414 36 36 27.9415 36 17.9997C36 8.05865 27.9414 -1.69486e-06 18 -1.69486e-06Z" fill="#1ED760"/>
<path d="M51.202 14.836C47.8217 14.0059 47.2197 13.4233 47.2197 12.1996C47.2197 11.0429 48.2773 10.2649 49.8498 10.2649C51.3741 10.2649 52.8853 10.8559 54.4702 12.0725C54.5181 12.1093 54.5782 12.124 54.6373 12.1143C54.6965 12.1052 54.7486 12.072 54.7834 12.0214L56.434 9.62578C56.5018 9.52732 56.4833 9.39108 56.3919 9.31573C54.5059 7.75755 52.3822 7 49.8998 7C46.2499 7 43.7004 9.25507 43.7004 12.4822C43.7004 15.9426 45.8997 17.1677 49.7002 18.1135C52.9349 18.8807 53.4808 19.5233 53.4808 20.6725C53.4808 21.9456 52.3768 22.7371 50.6003 22.7371C48.6273 22.7371 47.0177 22.0528 45.2173 20.4474C45.1726 20.4079 45.1114 20.3896 45.0548 20.3929C44.9954 20.398 44.9409 20.4264 44.903 20.4733L43.0524 22.7412C42.9748 22.8353 42.9846 22.9759 43.0741 23.0572C45.1691 24.9828 47.7452 26 50.5254 26C54.4585 26 57 23.7871 57 20.3624C57 17.468 55.3205 15.8673 51.202 14.836Z" fill="#1ED760"/>
<path d="M69.5056 19.1299C69.5056 21.5132 68.0538 23.1761 65.975 23.1761C63.9199 23.1761 62.3697 21.4376 62.3697 19.1299C62.3697 16.8226 63.9199 15.0837 65.975 15.0837C68.0204 15.0837 69.5056 16.785 69.5056 19.1299ZM66.6708 12C64.978 12 63.5896 12.6741 62.4447 14.0555V12.5007C62.4447 12.3779 62.3463 12.2779 62.2249 12.2779H59.2196C59.0982 12.2779 59 12.3779 59 12.5007V29.7773C59 29.9001 59.0982 30 59.2196 30H62.2249C62.3463 30 62.4447 29.9001 62.4447 29.7773V24.324C63.5898 25.6235 64.9785 26.2582 66.6708 26.2582C69.816 26.2582 73 23.8099 73 19.1299C73 14.4489 69.816 12 66.6708 12Z" fill="#1ED760"/>
<path d="M81.5133 22.9778C79.2725 22.9778 77.5832 21.2623 77.5832 18.9878C77.5832 16.7037 79.2141 15.0462 81.4616 15.0462C83.7169 15.0462 85.4176 16.7616 85.4176 19.0376C85.4176 21.3214 83.7755 22.9778 81.5133 22.9778ZM81.5133 12C77.3004 12 74 15.091 74 19.0376C74 22.9414 77.2778 26 81.4616 26C85.6894 26 89 22.9194 89 18.9878C89 15.0694 85.7121 12 81.5133 12Z" fill="#1ED760"/>
<path d="M97.7716 11.7301H94.3247V8.22793C94.3247 8.10218 94.2226 8 94.096 8H90.9641C90.8373 8 90.7342 8.10218 90.7342 8.22793V11.7301H89.2282C89.1019 11.7301 89 11.8326 89 11.9583V14.6336C89 14.7592 89.1019 14.8616 89.2282 14.8616H90.7342V21.7842C90.7342 24.5817 92.1353 26 94.8985 26C96.0221 26 96.9543 25.7694 97.8328 25.2744C97.9042 25.2347 97.9487 25.1583 97.9487 25.077V22.5294C97.9487 22.4507 97.9073 22.3766 97.8398 22.3353C97.7716 22.2928 97.6867 22.2906 97.6168 22.325C97.0134 22.6267 96.43 22.7659 95.778 22.7659C94.7732 22.7659 94.3247 22.3127 94.3247 21.2964V14.8616H97.7716C97.8981 14.8616 98 14.7592 98 14.6336V11.9583C98 11.8326 97.8981 11.7301 97.7716 11.7301Z" fill="#1ED760"/>
<path d="M109.14 12.2338V11.8143C109.14 10.5802 109.616 10.0298 110.683 10.0298C111.32 10.0298 111.831 10.1555 112.404 10.3454C112.474 10.3675 112.548 10.3565 112.605 10.3145C112.664 10.2725 112.697 10.2052 112.697 10.1339V7.57567C112.697 7.47789 112.634 7.39136 112.54 7.36275C111.935 7.18384 111.161 7 110.002 7C107.181 7 105.691 8.57904 105.691 11.5648V12.2073H104.224C104.101 12.2073 104 12.3069 104 12.4296V15.052C104 15.1746 104.101 15.2744 104.224 15.2744H105.691V25.688C105.691 25.8106 105.79 25.9103 105.914 25.9103H108.967C109.09 25.9103 109.191 25.8106 109.191 25.688V15.2744H112.041L116.408 25.6852C115.913 26.7791 115.425 26.9967 114.76 26.9967C114.222 26.9967 113.655 26.837 113.076 26.5219C113.021 26.492 112.957 26.4872 112.898 26.5052C112.84 26.5258 112.791 26.5688 112.766 26.6253L111.731 28.8827C111.682 28.9893 111.724 29.1146 111.827 29.1699C112.908 29.7517 113.883 30 115.088 30C117.343 30 118.589 28.9556 119.688 26.1464L124.985 12.5367C125.011 12.4683 125.003 12.3911 124.961 12.3301C124.919 12.2701 124.851 12.2338 124.777 12.2338H121.599C121.504 12.2338 121.418 12.2938 121.387 12.3827L118.131 21.6304L114.565 12.3766C114.532 12.2905 114.449 12.2338 114.356 12.2338H109.14Z" fill="#1ED760"/>
<path d="M102.745 12H99.2555C99.1145 12 99 12.1022 99 12.2276V25.7726C99 25.8981 99.1145 26 99.2555 26H102.745C102.885 26 103 25.8981 103 25.7726V12.2276C103 12.1022 102.885 12 102.745 12Z" fill="#1ED760"/>
<path d="M101.001 6C99.8964 6 99 6.89456 99 7.99914C99 9.10458 99.8964 10 101.001 10C102.105 10 103 9.10458 103 7.99914C103 6.89456 102.105 6 101.001 6Z" fill="#1ED760"/>
<path d="M126.784 28L134.272 11.2H138.112L145.624 28H141.544L135.4 13.168H136.936L130.768 28H126.784ZM130.528 24.4L131.56 21.448H140.2L141.256 24.4H130.528ZM147.367 28V11.2H154.639C156.143 11.2 157.439 11.448 158.527 11.944C159.615 12.424 160.455 13.12 161.047 14.032C161.639 14.944 161.935 16.032 161.935 17.296C161.935 18.544 161.639 19.624 161.047 20.536C160.455 21.448 159.615 22.152 158.527 22.648C157.439 23.128 156.143 23.368 154.639 23.368H149.527L151.255 21.616V28H147.367ZM151.255 22.048L149.527 20.2H154.423C155.623 20.2 156.519 19.944 157.111 19.432C157.703 18.92 157.999 18.208 157.999 17.296C157.999 16.368 157.703 15.648 157.111 15.136C156.519 14.624 155.623 14.368 154.423 14.368H149.527L151.255 12.52V22.048ZM164.711 28V11.2H168.599V28H164.711Z" fill="white"/>
</svg>
